<svg xmlns="http://www.w3.org/2000/svg" id="Layer_2" width="23.641" height="20.004" data-name="Layer 2" viewBox="0 0 23.641 20.004"><path id="Path_654" fill="#fff" d="M26.367,8.819H10.909a.909.909,0,0,1,0-1.819H26.367a.909.909,0,0,1,0,1.819Z" data-name="Path 654" transform="translate(-3.635 -5.181)"/><path id="Path_655" fill="#fff" d="M6.637,8.819H3.909A.909.909,0,0,1,3.909,7H6.637a.909.909,0,0,1,0,1.819Z" data-name="Path 655" transform="translate(-3 -5.181)"/><path id="Path_656" fill="#ffdfdf" d="M19.367,16.819H3.909a.909.909,0,0,1,0-1.819H19.367a.909.909,0,0,1,0,1.819Z" data-name="Path 656" transform="translate(-3 -5.907)"/><path id="Path_657" fill="#fff" d="M10.274,24.819H3.909a.909.909,0,0,1,0-1.819h6.365a.909.909,0,1,1,0,1.819Z" data-name="Path 657" transform="translate(-3 -6.633)"/><path id="Path_658" fill="#fff" d="M8.728,10.456a2.728,2.728,0,1,1,2.728-2.728A2.728,2.728,0,0,1,8.728,10.456Zm0-3.637a.909.909,0,1,0,.909.909A.909.909,0,0,0,8.728,6.819Z" data-name="Path 658" transform="translate(-3.272 -5)"/><path id="Path_659" fill="#ffdfdf" d="M22.728,18.456a2.728,2.728,0,1,1,2.728-2.728A2.728,2.728,0,0,1,22.728,18.456Zm0-3.637a.909.909,0,1,0,.909.909A.909.909,0,0,0,22.728,14.819Z" data-name="Path 659" transform="translate(-4.542 -5.726)"/><path id="Path_660" fill="#fff" d="M12.728,26.456a2.728,2.728,0,1,1,2.728-2.728A2.728,2.728,0,0,1,12.728,26.456Zm0-3.637a.909.909,0,1,0,.909.909A.909.909,0,0,0,12.728,22.819Z" data-name="Path 660" transform="translate(-3.635 -6.452)"/><path id="Path_661" fill="#ffdfdf" d="M27.637,16.819H24.909a.909.909,0,1,1,0-1.819h2.728a.909.909,0,1,1,0,1.819Z" data-name="Path 661" transform="translate(-4.905 -5.907)"/><path id="Path_662" fill="#fff" d="M26.73,24.819H14.909a.909.909,0,0,1,0-1.819H26.73a.909.909,0,1,1,0,1.819Z" data-name="Path 662" transform="translate(-3.998 -6.633)"/></svg>